{
  "accessors": [
    {
      "bufferView": 2,
      "componentType": 5126,
      "count": 52238,
      "max": [
        28.993099212646484,
        22.479299545288086,
        186.11669921875
      ],
      "min": [
        -35.18870162963867,
        -22.49169921875,
        -0.9945999979972839
      ],
      "type": "VEC3"
    },
    {
      "bufferView": 2,
      "byteOffset": 626856,
      "componentType": 5126,
      "count": 52238,
      "max": [
        0.9999949932098389,
        0.9999867081642151,
        0.9999226331710815
      ],
      "min": [
        -0.9999675154685974,
        -0.9999790787696838,
        -0.9999294281005859
      ],
      "type": "VEC3"
    },
    {
      "bufferView": 1,
      "componentType": 5126,
      "count": 52238,
      "max": [
        0.9955000281333923,
        0.9980000257492065
      ],
      "min": [
        0.0005000000237487257,
        0.0005000829696655273
      ],
      "type": "VEC2"
    },
    {
      "bufferView": 0,
      "componentType": 5125,
      "count": 299892,
      "type": "SCALAR"
    }
  ],
  "asset": {
    "extras": {
      "author": "1-3D.com (https://sketchfab.com/1-3D.com)",
      "license": "CC-BY-4.0 (http://creativecommons.org/licenses/by/4.0/)",
      "source": "https://sketchfab.com/3d-models/scanned-posing-man-dennis-f61c61c98be743c0b37008a44ef113c4",
      "title": "Scanned posing man Dennis"
    },
    "generator": "Sketchfab-12.56.0",
    "version": "2.0"
  },
  "bufferViews": [
    {
      "buffer": 0,
      "byteLength": 1199568,
      "name": "floatBufferViews",
      "target": 34963
    },
    {
      "buffer": 0,
      "byteLength": 417904,
      "byteOffset": 1199568,
      "byteStride": 8,
      "name": "floatBufferViews",
      "target": 34962
    },
    {
      "buffer": 0,
      "byteLength": 1253712,
      "byteOffset": 1617472,
      "byteStride": 12,
      "name": "floatBufferViews",
      "target": 34962
    }
  ],
  "buffers": [
    {
      "byteLength": 2871184,
      "uri": "scene.bin"
    }
  ],
  "images": [
    {
      "uri": "textures/rp_dennis_posed_004_100k_mat_baseColor.jpeg"
    }
  ],
  "materials": [
    {
      "doubleSided": true,
      "name": "rp_dennis_posed_004_100k_mat",
      "pbrMetallicRoughness": {
        "baseColorTexture": {
          "index": 0
        },
        "metallicFactor": 0.0,
        "roughnessFactor": 0.6
      }
    }
  ],
  "meshes": [
    {
      "name": "rp_dennis_posed_004_100k_rp_dennis_posed_004_100k_mat_0",
      "primitives": [
        {
          "attributes": {
            "NORMAL": 1,
            "POSITION": 0,
            "TEXCOORD_0": 2
          },
          "indices": 3,
          "material": 0,
          "mode": 4
        }
      ]
    }
  ],
  "nodes": [
    {
      "children": [
        1
      ],
      "matrix": [
        1.0,
        0.0,
        0.0,
        0.0,
        0.0,
        2.220446049250313e-16,
        -1.0,
        0.0,
        0.0,
        1.0,
        2.220446049250313e-16,
        0.0,
        0.0,
        0.0,
        0.0,
        1.0
      ],
      "name": "Sketchfab_model"
    },
    {
      "children": [
        2
      ],
      "matrix": [
        0.009999999776482582,
        0.0,
        0.0,
        0.0,
        0.0,
        0.0,
        0.009999999776482582,
        0.0,
        0.0,
        -0.009999999776482582,
        0.0,
        0.0,
        0.0,
        0.0,
        0.0,
        1.0
      ],
      "name": "5884d9dc7eda49f7981f9081c4143ff8.fbx"
    },
    {
      "children": [
        3
      ],
      "name": "RootNode"
    },
    {
      "children": [
        4
      ],
      "matrix": [
        1.0,
        0.0,
        0.0,
        0.0,
        0.0,
        2.220446049250313e-16,
        -1.0,
        0.0,
        0.0,
        1.0,
        2.220446049250313e-16,
        0.0,
        0.0,
        0.0,
        0.0,
        1.0
      ],
      "name": "rp_dennis_posed_004_100k"
    },
    {
      "mesh": 0,
      "name": "rp_dennis_posed_004_100k_rp_dennis_posed_004_100k_mat_0"
    }
  ],
  "samplers": [
    {
      "magFilter": 9729,
      "minFilter": 9987,
      "wrapS": 10497,
      "wrapT": 10497
    }
  ],
  "scene": 0,
  "scenes": [
    {
      "name": "Sketchfab_Scene",
      "nodes": [
        0
      ]
    }
  ],
  "textures": [
    {
      "sampler": 0,
      "source": 0
    }
  ]
}
