{
  "accessors": [
    {
      "bufferView": 2,
      "componentType": 5126,
      "count": 538,
      "max": [
        0.2512705624103546,
        0.29688242077827454,
        0.2512575685977936
      ],
      "min": [
        -0.22379463911056519,
        -0.05044034123420715,
        -0.5533028841018677
      ],
      "type": "VEC3"
    },
    {
      "bufferView": 2,
      "byteOffset": 6456,
      "componentType": 5126,
      "count": 538,
      "max": [
        1.0,
        1.0,
        1.0
      ],
      "min": [
        -1.0,
        -1.0,
        -1.0
      ],
      "type": "VEC3"
    },
    {
      "bufferView": 3,
      "componentType": 5126,
      "count": 538,
      "max": [
        1.0,
        1.0,
        1.0,
        1.0
      ],
      "min": [
        -1.0,
        -1.0,
        -1.0,
        -1.0
      ],
      "type": "VEC4"
    },
    {
      "bufferView": 1,
      "componentType": 5126,
      "count": 538,
      "max": [
        1.0000001192092896,
        0.9790878891944885
      ],
      "min": [
        -6.539514288306236e-05,
        0.0
      ],
      "type": "VEC2"
    },
    {
      "bufferView": 1,
      "byteOffset": 4304,
      "componentType": 5126,
      "count": 538,
      "max": [
        1.0000001192092896,
        0.9790878891944885
      ],
      "min": [
        -6.539514288306236e-05,
        0.0
      ],
      "type": "VEC2"
    },
    {
      "bufferView": 1,
      "byteOffset": 8608,
      "componentType": 5126,
      "count": 538,
      "max": [
        1.0000001192092896,
        0.9790878891944885
      ],
      "min": [
        -6.539514288306236e-05,
        0.0
      ],
      "type": "VEC2"
    },
    {
      "bufferView": 0,
      "componentType": 5125,
      "count": 1260,
      "type": "SCALAR"
    },
    {
      "bufferView": 2,
      "byteOffset": 12912,
      "componentType": 5126,
      "count": 2093,
      "max": [
        0.18197643756866455,
        0.13897006213665009,
        0.23416566848754883
      ],
      "min": [
        -0.2258821725845337,
        -0.0827532410621643,
        -0.5300241708755493
      ],
      "type": "VEC3"
    },
    {
      "bufferView": 2,
      "byteOffset": 38028,
      "componentType": 5126,
      "count": 2093,
      "max": [
        1.0,
        1.0,
        1.0
      ],
      "min": [
        -1.0,
        -1.0,
        -1.0
      ],
      "type": "VEC3"
    },
    {
      "bufferView": 3,
      "byteOffset": 8608,
      "componentType": 5126,
      "count": 2093,
      "max": [
        1.0,
        1.0,
        1.0,
        1.0
      ],
      "min": [
        -1.0,
        -1.0,
        -1.0,
        -1.0
      ],
      "type": "VEC4"
    },
    {
      "bufferView": 1,
      "byteOffset": 12912,
      "componentType": 5126,
      "count": 2093,
      "max": [
        0.9863108992576599,
        0.9790878891944885
      ],
      "min": [
        0.0,
        0.0
      ],
      "type": "VEC2"
    },
    {
      "bufferView": 1,
      "byteOffset": 29656,
      "componentType": 5126,
      "count": 2093,
      "max": [
        0.9863108992576599,
        0.9790878891944885
      ],
      "min": [
        0.0,
        0.0
      ],
      "type": "VEC2"
    },
    {
      "bufferView": 1,
      "byteOffset": 46400,
      "componentType": 5126,
      "count": 2093,
      "max": [
        0.9863108992576599,
        0.9790878891944885
      ],
      "min": [
        0.0,
        0.0
      ],
      "type": "VEC2"
    },
    {
      "bufferView": 0,
      "byteOffset": 5040,
      "componentType": 5125,
      "count": 5808,
      "type": "SCALAR"
    },
    {
      "bufferView": 2,
      "byteOffset": 63144,
      "componentType": 5126,
      "count": 20,
      "max": [
        0.20846021175384521,
        -0.03755328059196472,
        -0.04222988337278366
      ],
      "min": [
        -0.029647113755345345,
        -0.045596539974212646,
        -0.35252419114112854
      ],
      "type": "VEC3"
    },
    {
      "bufferView": 2,
      "byteOffset": 63384,
      "componentType": 5126,
      "count": 20,
      "max": [
        1.0,
        0.0,
        1.0
      ],
      "min": [
        -1.0,
        -1.0,
        0.0
      ],
      "type": "VEC3"
    },
    {
      "bufferView": 3,
      "byteOffset": 42096,
      "componentType": 5126,
      "count": 20,
      "max": [
        1.0,
        1.0,
        0.0,
        1.0
      ],
      "min": [
        0.0,
        -1.0,
        0.0,
        1.0
      ],
      "type": "VEC4"
    },
    {
      "bufferView": 1,
      "byteOffset": 63144,
      "componentType": 5126,
      "count": 20,
      "max": [
        0.5136548280715942,
        0.9693489074707031
      ],
      "min": [
        2.0855479565540236e-09,
        0.7958070635795593
      ],
      "type": "VEC2"
    },
    {
      "bufferView": 1,
      "byteOffset": 63304,
      "componentType": 5126,
      "count": 20,
      "max": [
        0.5136548280715942,
        0.9693489074707031
      ],
      "min": [
        2.0855479565540236e-09,
        0.7958070635795593
      ],
      "type": "VEC2"
    },
    {
      "bufferView": 1,
      "byteOffset": 63464,
      "componentType": 5126,
      "count": 20,
      "max": [
        0.5136548280715942,
        0.9693489074707031
      ],
      "min": [
        2.0855479565540236e-09,
        0.7958070635795593
      ],
      "type": "VEC2"
    },
    {
      "bufferView": 0,
      "byteOffset": 28272,
      "componentType": 5125,
      "count": 36,
      "type": "SCALAR"
    },
    {
      "bufferView": 2,
      "byteOffset": 63624,
      "componentType": 5126,
      "count": 3071,
      "max": [
        0.34792083501815796,
        0.2503330707550049,
        0.524641752243042
      ],
      "min": [
        -0.7860883474349976,
        -0.575403094291687,
        -1.2707594633102417
      ],
      "type": "VEC3"
    },
    {
      "bufferView": 2,
      "byteOffset": 100476,
      "componentType": 5126,
      "count": 3071,
      "max": [
        0.9957676529884338,
        0.9997304677963257,
        0.9999436736106873
      ],
      "min": [
        -0.9998594522476196,
        -0.9991762042045593,
        -0.9999439120292664
      ],
      "type": "VEC3"
    },
    {
      "bufferView": 1,
      "byteOffset": 63624,
      "componentType": 5126,
      "count": 3071,
      "max": [
        1.0277999639511108,
        1.0
      ],
      "min": [
        -0.0020622694864869118,
        0.0
      ],
      "type": "VEC2"
    },
    {
      "bufferView": 0,
      "byteOffset": 28416,
      "componentType": 5125,
      "count": 17646,
      "type": "SCALAR"
    }
  ],
  "asset": {
    "extras": {
      "author": "NurulAthyrah (https://sketchfab.com/Nurul_Athyrah)",
      "license": "CC-BY-4.0 (http://creativecommons.org/licenses/by/4.0/)",
      "source": "https://sketchfab.com/3d-models/public-telephone-e3899ef915154ca99696f0afb1c05aa7",
      "title": "Public Telephone"
    },
    "generator": "Sketchfab-15.91.0",
    "version": "2.0"
  },
  "bufferViews": [
    {
      "buffer": 0,
      "byteLength": 99000,
      "name": "floatBufferViews",
      "target": 34963
    },
    {
      "buffer": 0,
      "byteLength": 88192,
      "byteOffset": 99000,
      "byteStride": 8,
      "name": "floatBufferViews",
      "target": 34962
    },
    {
      "buffer": 0,
      "byteLength": 137328,
      "byteOffset": 187192,
      "byteStride": 12,
      "name": "floatBufferViews",
      "target": 34962
    },
    {
      "buffer": 0,
      "byteLength": 42416,
      "byteOffset": 324520,
      "byteStride": 16,
      "name": "floatBufferViews",
      "target": 34962
    }
  ],
  "buffers": [
    {
      "byteLength": 366936,
      "uri": "scene.bin"
    }
  ],
  "images": [
    {
      "uri": "textures/fone_Awam_baseColor.png"
    },
    {
      "uri": "textures/fone_Awam_metallicRoughness.png"
    },
    {
      "uri": "textures/fone_Awam_normal.png"
    },
    {
      "uri": "textures/Silver_baseColor.png"
    },
    {
      "uri": "textures/Silver_metallicRoughness.png"
    },
    {
      "uri": "textures/Silver_normal.png"
    },
    {
      "uri": "textures/Face_baseColor.png"
    },
    {
      "uri": "textures/Face_metallicRoughness.png"
    },
    {
      "uri": "textures/Face_normal.png"
    }
  ],
  "materials": [
    {
      "doubleSided": true,
      "name": "fone_Awam",
      "normalTexture": {
        "index": 2,
        "texCoord": 1
      },
      "pbrMetallicRoughness": {
        "baseColorTexture": {
          "index": 0
        },
        "metallicRoughnessTexture": {
          "index": 1
        }
      }
    },
    {
      "doubleSided": true,
      "name": "Silver",
      "normalTexture": {
        "index": 5,
        "texCoord": 1
      },
      "pbrMetallicRoughness": {
        "baseColorTexture": {
          "index": 3
        },
        "metallicRoughnessTexture": {
          "index": 4
        }
      }
    },
    {
      "doubleSided": true,
      "name": "Face",
      "normalTexture": {
        "index": 8
      },
      "pbrMetallicRoughness": {
        "baseColorTexture": {
          "index": 6
        },
        "metallicRoughnessTexture": {
          "index": 7
        }
      }
    },
    {
      "doubleSided": true,
      "name": "Phone_Receiver",
      "pbrMetallicRoughness": {
        "baseColorFactor": [
          0.0100225,
          0.0100225,
          0.0100225,
          1.0
        ],
        "metallicFactor": 0.0,
        "roughnessFactor": 0.9977589008695509
      }
    }
  ],
  "meshes": [
    {
      "name": "Public_Phone.003_fone_Awam_0",
      "primitives": [
        {
          "attributes": {
            "NORMAL": 1,
            "POSITION": 0,
            "TANGENT": 2,
            "TEXCOORD_0": 3,
            "TEXCOORD_1": 4,
            "TEXCOORD_2": 5
          },
          "indices": 6,
          "material": 0,
          "mode": 4
        }
      ]
    },
    {
      "name": "Public_Phone.003_Silver_0",
      "primitives": [
        {
          "attributes": {
            "NORMAL": 8,
            "POSITION": 7,
            "TANGENT": 9,
            "TEXCOORD_0": 10,
            "TEXCOORD_1": 11,
            "TEXCOORD_2": 12
          },
          "indices": 13,
          "material": 1,
          "mode": 4
        }
      ]
    },
    {
      "name": "Public_Phone.003_Face_0",
      "primitives": [
        {
          "attributes": {
            "NORMAL": 15,
            "POSITION": 14,
            "TANGENT": 16,
            "TEXCOORD_0": 17,
            "TEXCOORD_1": 18,
            "TEXCOORD_2": 19
          },
          "indices": 20,
          "material": 2,
          "mode": 4
        }
      ]
    },
    {
      "name": "Phone.002_Phone Receiver_0",
      "primitives": [
        {
          "attributes": {
            "NORMAL": 22,
            "POSITION": 21,
            "TEXCOORD_0": 23
          },
          "indices": 24,
          "material": 3,
          "mode": 4
        }
      ]
    }
  ],
  "nodes": [
    {
      "children": [
        1
      ],
      "matrix": [
        1.0,
        0.0,
        0.0,
        0.0,
        0.0,
        2.220446049250313e-16,
        -1.0,
        0.0,
        0.0,
        1.0,
        2.220446049250313e-16,
        0.0,
        0.0,
        0.0,
        0.0,
        1.0
      ],
      "name": "Sketchfab_model"
    },
    {
      "children": [
        2
      ],
      "matrix": [
        0.009999999776482582,
        0.0,
        0.0,
        0.0,
        0.0,
        0.0,
        0.009999999776482582,
        0.0,
        0.0,
        -0.009999999776482582,
        0.0,
        0.0,
        0.0,
        0.0,
        0.0,
        1.0
      ],
      "name": "Tekefon_Awam.fbx"
    },
    {
      "children": [
        3,
        7
      ],
      "name": "RootNode"
    },
    {
      "children": [
        4,
        5,
        6
      ],
      "matrix": [
        100.0,
        0.0,
        0.0,
        0.0,
        0.0,
        -2.8212996916465727e-05,
        -99.99999999999602,
        0.0,
        0.0,
        99.99999999999602,
        -2.8212996916465727e-05,
        0.0,
        0.49831122159957886,
        60.083709716796875,
        13.8763427734375,
        1.0
      ],
      "name": "Public_Phone.003"
    },
    {
      "mesh": 0,
      "name": "Public_Phone.003_fone_Awam_0"
    },
    {
      "mesh": 1,
      "name": "Public_Phone.003_Silver_0"
    },
    {
      "mesh": 2,
      "name": "Public_Phone.003_Face_0"
    },
    {
      "children": [
        8
      ],
      "matrix": [
        -6.062595795746022e-06,
        1.7761382728930941,
        20.846668670026933,
        0.0,
        20.92219352718706,
        3.7954719626473296e-05,
        2.8508138762235276e-06,
        0.0,
        -6.17752049833455e-05,
        34.27234355432554,
        -2.920007126916867,
        0.0,
        -13.1131010055542,
        53.08393096923828,
        20.002460479736328,
        1.0
      ],
      "name": "Phone.002"
    },
    {
      "mesh": 3,
      "name": "Phone.002_Phone Receiver_0"
    }
  ],
  "samplers": [
    {
      "magFilter": 9729,
      "minFilter": 9987,
      "wrapS": 10497,
      "wrapT": 10497
    }
  ],
  "scene": 0,
  "scenes": [
    {
      "name": "Sketchfab_Scene",
      "nodes": [
        0
      ]
    }
  ],
  "textures": [
    {
      "sampler": 0,
      "source": 0
    },
    {
      "sampler": 0,
      "source": 1
    },
    {
      "sampler": 0,
      "source": 2
    },
    {
      "sampler": 0,
      "source": 3
    },
    {
      "sampler": 0,
      "source": 4
    },
    {
      "sampler": 0,
      "source": 5
    },
    {
      "sampler": 0,
      "source": 6
    },
    {
      "sampler": 0,
      "source": 7
    },
    {
      "sampler": 0,
      "source": 8
    }
  ]
}
